<svg xmlns="http://www.w3.org/2000/svg" viewBox="0 0 400 560" fill="none">
  <defs>
    <linearGradient id="bg" x1="200" y1="0" x2="200" y2="560" gradientUnits="userSpaceOnUse">
      <stop offset="0%" stop-color="#0a1628"/>
      <stop offset="45%" stop-color="#121a4a"/>
      <stop offset="100%" stop-color="#060812"/>
    </linearGradient>
    <radialGradient id="glow1" cx="0" cy="0" r="1" gradientTransform="translate(120 140) rotate(90) scale(180 120)">
      <stop offset="0%" stop-color="#7c3aed" stop-opacity="0.55"/>
      <stop offset="100%" stop-color="#7c3aed" stop-opacity="0"/>
    </radialGradient>
    <radialGradient id="glow2" cx="0" cy="0" r="1" gradientTransform="translate(280 200) rotate(90) scale(140 100)">
      <stop offset="0%" stop-color="#3b82f6" stop-opacity="0.45"/>
      <stop offset="100%" stop-color="#3b82f6" stop-opacity="0"/>
    </radialGradient>
    <filter id="blur" x="-20%" y="-20%" width="140%" height="140%">
      <feGaussianBlur stdDeviation="18"/>
    </filter>
  </defs>
  <rect width="400" height="560" rx="32" fill="url(#bg)"/>
  <ellipse cx="120" cy="140" rx="160" ry="90" fill="url(#glow1)" filter="url(#blur)"/>
  <ellipse cx="280" cy="200" rx="130" ry="80" fill="url(#glow2)" filter="url(#blur)"/>
  <path d="M20 180 C80 120, 160 220, 240 160 S360 120, 380 200" stroke="#a78bfa" stroke-width="2" stroke-opacity="0.35" fill="none"/>
  <path d="M40 260 C120 200, 200 300, 320 240" stroke="#60a5fa" stroke-width="1.5" stroke-opacity="0.3" fill="none"/>
  <circle cx="90" cy="110" r="1.5" fill="#fff" fill-opacity="0.7"/>
  <circle cx="310" cy="90" r="1" fill="#fff" fill-opacity="0.5"/>
  <circle cx="250" cy="320" r="1.2" fill="#c4b5fd" fill-opacity="0.6"/>
  <circle cx="70" cy="380" r="1" fill="#fff" fill-opacity="0.4"/>
  <circle cx="340" cy="420" r="1.5" fill="#fff" fill-opacity="0.55"/>
  <circle cx="180" cy="450" r="1" fill="#93c5fd" fill-opacity="0.5"/>
</svg>
